<mxfile host="app.diagrams.net" modified="2024-05-30T11:22:53.133Z" agent="Mozilla/5.0 (Windows NT 10.0; Win64; x64) AppleWebKit/537.36 (KHTML, like Gecko) Chrome/125.0.0.0 Safari/537.36" etag="CC_jF2yGssNbmC4TBAv-" version="24.4.10" type="google">
  <diagram name="Page-1" id="Akkqht2RlJM1tFba4san">
    <mxGraphModel grid="1" page="1" gridSize="10" guides="1" tooltips="1" connect="1" arrows="1" fold="1" pageScale="1" pageWidth="850" pageHeight="1100" math="0" shadow="0">
      <root>
        <mxCell id="0" />
        <mxCell id="1" parent="0" />
        <mxCell id="RVw122KDVDEoWzLEf_xX-14" value="Pool" style="swimlane;childLayout=stackLayout;resizeParent=1;resizeParentMax=0;startSize=20;html=1;" vertex="1" parent="1">
          <mxGeometry x="100" y="10" width="260" height="1210" as="geometry" />
        </mxCell>
        <mxCell id="RVw122KDVDEoWzLEf_xX-15" value="CUSTOMER" style="swimlane;startSize=20;html=1;" vertex="1" parent="RVw122KDVDEoWzLEf_xX-14">
          <mxGeometry y="20" width="260" height="1190" as="geometry" />
        </mxCell>
        <mxCell id="RVw122KDVDEoWzLEf_xX-20" value="" style="ellipse;html=1;shape=startState;fillColor=#000000;strokeColor=#ff0000;" vertex="1" parent="RVw122KDVDEoWzLEf_xX-15">
          <mxGeometry x="110" y="50" width="30" height="30" as="geometry" />
        </mxCell>
        <mxCell id="RVw122KDVDEoWzLEf_xX-21" value="" style="edgeStyle=orthogonalEdgeStyle;html=1;verticalAlign=bottom;endArrow=open;endSize=8;strokeColor=#ff0000;rounded=0;" edge="1" parent="RVw122KDVDEoWzLEf_xX-15" source="RVw122KDVDEoWzLEf_xX-20">
          <mxGeometry relative="1" as="geometry">
            <mxPoint x="125" y="120" as="targetPoint" />
          </mxGeometry>
        </mxCell>
        <mxCell id="RVw122KDVDEoWzLEf_xX-23" style="edgeStyle=orthogonalEdgeStyle;rounded=0;orthogonalLoop=1;jettySize=auto;html=1;exitX=0.5;exitY=1;exitDx=0;exitDy=0;" edge="1" parent="RVw122KDVDEoWzLEf_xX-15">
          <mxGeometry relative="1" as="geometry">
            <mxPoint x="125" y="170" as="sourcePoint" />
            <mxPoint x="125" y="170" as="targetPoint" />
          </mxGeometry>
        </mxCell>
        <mxCell id="RVw122KDVDEoWzLEf_xX-40" value="" style="endArrow=classic;html=1;rounded=0;exitX=0.5;exitY=1;exitDx=0;exitDy=0;" edge="1" parent="RVw122KDVDEoWzLEf_xX-15">
          <mxGeometry width="50" height="50" relative="1" as="geometry">
            <mxPoint x="125" y="330" as="sourcePoint" />
            <mxPoint x="560" y="370" as="targetPoint" />
            <Array as="points">
              <mxPoint x="125" y="370" />
            </Array>
          </mxGeometry>
        </mxCell>
        <mxCell id="RVw122KDVDEoWzLEf_xX-45" value="Enter Amount" style="points=[[0.25,0,0],[0.5,0,0],[0.75,0,0],[1,0.25,0],[1,0.5,0],[1,0.75,0],[0.75,1,0],[0.5,1,0],[0.25,1,0],[0,0.75,0],[0,0.5,0],[0,0.25,0]];shape=mxgraph.bpmn.task;whiteSpace=wrap;rectStyle=rounded;size=10;html=1;container=1;expand=0;collapsible=0;bpmnShapeType=call;" vertex="1" parent="RVw122KDVDEoWzLEf_xX-15">
          <mxGeometry x="60" y="290" width="120" height="40" as="geometry" />
        </mxCell>
        <mxCell id="RVw122KDVDEoWzLEf_xX-46" value="Enter Amount" style="points=[[0.25,0,0],[0.5,0,0],[0.75,0,0],[1,0.25,0],[1,0.5,0],[1,0.75,0],[0.75,1,0],[0.5,1,0],[0.25,1,0],[0,0.75,0],[0,0.5,0],[0,0.25,0]];shape=mxgraph.bpmn.task;whiteSpace=wrap;rectStyle=rounded;size=10;html=1;container=1;expand=0;collapsible=0;bpmnShapeType=call;" vertex="1" parent="RVw122KDVDEoWzLEf_xX-15">
          <mxGeometry x="65" y="210" width="120" height="40" as="geometry" />
        </mxCell>
        <mxCell id="RVw122KDVDEoWzLEf_xX-47" value="Insert Card" style="points=[[0.25,0,0],[0.5,0,0],[0.75,0,0],[1,0.25,0],[1,0.5,0],[1,0.75,0],[0.75,1,0],[0.5,1,0],[0.25,1,0],[0,0.75,0],[0,0.5,0],[0,0.25,0]];shape=mxgraph.bpmn.task;whiteSpace=wrap;rectStyle=rounded;size=10;html=1;container=1;expand=0;collapsible=0;bpmnShapeType=call;" vertex="1" parent="RVw122KDVDEoWzLEf_xX-15">
          <mxGeometry x="65" y="130" width="120" height="40" as="geometry" />
        </mxCell>
        <mxCell id="RVw122KDVDEoWzLEf_xX-53" value="" style="shape=line;html=1;strokeWidth=6;strokeColor=#ff0000;" vertex="1" parent="RVw122KDVDEoWzLEf_xX-15">
          <mxGeometry x="20" y="520" width="200" height="10" as="geometry" />
        </mxCell>
        <mxCell id="RVw122KDVDEoWzLEf_xX-60" value="Take Money from slot" style="points=[[0.25,0,0],[0.5,0,0],[0.75,0,0],[1,0.25,0],[1,0.5,0],[1,0.75,0],[0.75,1,0],[0.5,1,0],[0.25,1,0],[0,0.75,0],[0,0.5,0],[0,0.25,0]];shape=mxgraph.bpmn.task;whiteSpace=wrap;rectStyle=rounded;size=10;html=1;container=1;expand=0;collapsible=0;bpmnShapeType=call;" vertex="1" parent="RVw122KDVDEoWzLEf_xX-15">
          <mxGeometry x="60" y="590" width="120" height="50" as="geometry" />
        </mxCell>
        <mxCell id="RVw122KDVDEoWzLEf_xX-73" value="Take card" style="points=[[0.25,0,0],[0.5,0,0],[0.75,0,0],[1,0.25,0],[1,0.5,0],[1,0.75,0],[0.75,1,0],[0.5,1,0],[0.25,1,0],[0,0.75,0],[0,0.5,0],[0,0.25,0]];shape=mxgraph.bpmn.task;whiteSpace=wrap;rectStyle=rounded;size=10;html=1;container=1;expand=0;collapsible=0;bpmnShapeType=call;" vertex="1" parent="RVw122KDVDEoWzLEf_xX-15">
          <mxGeometry x="70" y="1110" width="120" height="30" as="geometry" />
        </mxCell>
        <mxCell id="RVw122KDVDEoWzLEf_xX-74" value="" style="endArrow=classic;html=1;rounded=0;exitX=0.5;exitY=1;exitDx=0;exitDy=0;exitPerimeter=0;entryX=0.5;entryY=0;entryDx=0;entryDy=0;entryPerimeter=0;" edge="1" parent="RVw122KDVDEoWzLEf_xX-15" source="RVw122KDVDEoWzLEf_xX-72" target="RVw122KDVDEoWzLEf_xX-73">
          <mxGeometry width="50" height="50" relative="1" as="geometry">
            <mxPoint x="390" y="1070" as="sourcePoint" />
            <mxPoint x="440" y="1020" as="targetPoint" />
            <Array as="points">
              <mxPoint x="250" y="1090" />
              <mxPoint x="130" y="1090" />
            </Array>
          </mxGeometry>
        </mxCell>
        <mxCell id="RVw122KDVDEoWzLEf_xX-75" value="" style="ellipse;html=1;shape=endState;fillColor=#000000;strokeColor=#ff0000;" vertex="1" parent="RVw122KDVDEoWzLEf_xX-15">
          <mxGeometry x="115" y="1160" width="30" height="30" as="geometry" />
        </mxCell>
        <mxCell id="RVw122KDVDEoWzLEf_xX-76" value="" style="endArrow=classic;html=1;rounded=0;exitX=0.5;exitY=1;exitDx=0;exitDy=0;exitPerimeter=0;entryX=0.5;entryY=0;entryDx=0;entryDy=0;" edge="1" parent="RVw122KDVDEoWzLEf_xX-15" source="RVw122KDVDEoWzLEf_xX-73" target="RVw122KDVDEoWzLEf_xX-75">
          <mxGeometry width="50" height="50" relative="1" as="geometry">
            <mxPoint x="390" y="1190" as="sourcePoint" />
            <mxPoint x="440" y="1140" as="targetPoint" />
          </mxGeometry>
        </mxCell>
        <mxCell id="RVw122KDVDEoWzLEf_xX-34" value="" style="endArrow=classic;html=1;rounded=0;exitX=1;exitY=0.5;exitDx=0;exitDy=0;entryX=0;entryY=0.5;entryDx=0;entryDy=0;" edge="1" parent="RVw122KDVDEoWzLEf_xX-14">
          <mxGeometry width="50" height="50" relative="1" as="geometry">
            <mxPoint x="185" y="250" as="sourcePoint" />
            <mxPoint x="570" y="250" as="targetPoint" />
          </mxGeometry>
        </mxCell>
        <mxCell id="RVw122KDVDEoWzLEf_xX-38" value="" style="endArrow=classic;html=1;rounded=0;entryX=1;entryY=0.5;entryDx=0;entryDy=0;exitX=0;exitY=0.5;exitDx=0;exitDy=0;" edge="1" parent="RVw122KDVDEoWzLEf_xX-14" source="RVw122KDVDEoWzLEf_xX-33">
          <mxGeometry width="50" height="50" relative="1" as="geometry">
            <mxPoint x="300" y="360" as="sourcePoint" />
            <mxPoint x="185" y="330" as="targetPoint" />
          </mxGeometry>
        </mxCell>
        <mxCell id="RVw122KDVDEoWzLEf_xX-63" value="" style="endArrow=classic;html=1;rounded=0;exitX=1;exitY=0.25;exitDx=0;exitDy=0;exitPerimeter=0;" edge="1" parent="RVw122KDVDEoWzLEf_xX-14" source="RVw122KDVDEoWzLEf_xX-60">
          <mxGeometry width="50" height="50" relative="1" as="geometry">
            <mxPoint x="390" y="750" as="sourcePoint" />
            <mxPoint x="340" y="650" as="targetPoint" />
            <Array as="points">
              <mxPoint x="340" y="623" />
            </Array>
          </mxGeometry>
        </mxCell>
        <mxCell id="RVw122KDVDEoWzLEf_xX-25" value="" style="endArrow=classic;html=1;rounded=0;" edge="1" parent="1">
          <mxGeometry width="50" height="50" relative="1" as="geometry">
            <mxPoint x="223" y="200" as="sourcePoint" />
            <mxPoint x="223" y="240" as="targetPoint" />
          </mxGeometry>
        </mxCell>
        <mxCell id="RVw122KDVDEoWzLEf_xX-31" value="" style="endArrow=classic;html=1;rounded=0;exitX=0.5;exitY=1;exitDx=0;exitDy=0;" edge="1" parent="1">
          <mxGeometry width="50" height="50" relative="1" as="geometry">
            <mxPoint x="225" y="280" as="sourcePoint" />
            <mxPoint x="225" y="320" as="targetPoint" />
          </mxGeometry>
        </mxCell>
        <mxCell id="RVw122KDVDEoWzLEf_xX-17" value="BANK" style="swimlane;startSize=20;html=1;" vertex="1" parent="1">
          <mxGeometry x="570" y="30" width="240" height="1190" as="geometry" />
        </mxCell>
        <mxCell id="RVw122KDVDEoWzLEf_xX-33" value="" style="rhombus;whiteSpace=wrap;html=1;" vertex="1" parent="RVw122KDVDEoWzLEf_xX-17">
          <mxGeometry x="110" y="290" width="80" height="40" as="geometry" />
        </mxCell>
        <mxCell id="RVw122KDVDEoWzLEf_xX-35" value="" style="endArrow=classic;html=1;rounded=0;entryX=0.5;entryY=0;entryDx=0;entryDy=0;" edge="1" parent="RVw122KDVDEoWzLEf_xX-17" target="RVw122KDVDEoWzLEf_xX-33">
          <mxGeometry width="50" height="50" relative="1" as="geometry">
            <mxPoint x="150" y="250" as="sourcePoint" />
            <mxPoint x="-120" y="290" as="targetPoint" />
          </mxGeometry>
        </mxCell>
        <mxCell id="RVw122KDVDEoWzLEf_xX-43" value="Check account balance" style="points=[[0.25,0,0],[0.5,0,0],[0.75,0,0],[1,0.25,0],[1,0.5,0],[1,0.75,0],[0.75,1,0],[0.5,1,0],[0.25,1,0],[0,0.75,0],[0,0.5,0],[0,0.25,0]];shape=mxgraph.bpmn.task;whiteSpace=wrap;rectStyle=rounded;size=10;html=1;container=1;expand=0;collapsible=0;bpmnShapeType=call;" vertex="1" parent="RVw122KDVDEoWzLEf_xX-17">
          <mxGeometry x="100" y="350" width="110" height="40" as="geometry" />
        </mxCell>
        <mxCell id="RVw122KDVDEoWzLEf_xX-44" value="Authorize" style="points=[[0.25,0,0],[0.5,0,0],[0.75,0,0],[1,0.25,0],[1,0.5,0],[1,0.75,0],[0.75,1,0],[0.5,1,0],[0.25,1,0],[0,0.75,0],[0,0.5,0],[0,0.25,0]];shape=mxgraph.bpmn.task;whiteSpace=wrap;rectStyle=rounded;size=10;html=1;container=1;expand=0;collapsible=0;bpmnShapeType=call;" vertex="1" parent="RVw122KDVDEoWzLEf_xX-17">
          <mxGeometry x="100" y="210" width="120" height="40" as="geometry" />
        </mxCell>
        <mxCell id="RVw122KDVDEoWzLEf_xX-50" value="Debit account" style="points=[[0.25,0,0],[0.5,0,0],[0.75,0,0],[1,0.25,0],[1,0.5,0],[1,0.75,0],[0.75,1,0],[0.5,1,0],[0.25,1,0],[0,0.75,0],[0,0.5,0],[0,0.25,0]];shape=mxgraph.bpmn.task;whiteSpace=wrap;rectStyle=rounded;size=10;html=1;container=1;expand=0;collapsible=0;bpmnShapeType=call;" vertex="1" parent="RVw122KDVDEoWzLEf_xX-17">
          <mxGeometry x="90" y="560" width="120" height="40" as="geometry" />
        </mxCell>
        <mxCell id="RVw122KDVDEoWzLEf_xX-51" value="" style="rhombus;whiteSpace=wrap;html=1;" vertex="1" parent="RVw122KDVDEoWzLEf_xX-17">
          <mxGeometry x="110" y="450" width="80" height="50" as="geometry" />
        </mxCell>
        <mxCell id="RVw122KDVDEoWzLEf_xX-49" value="" style="endArrow=classic;html=1;rounded=0;" edge="1" parent="1">
          <mxGeometry width="50" height="50" relative="1" as="geometry">
            <mxPoint x="720" y="420" as="sourcePoint" />
            <mxPoint x="720" y="480" as="targetPoint" />
          </mxGeometry>
        </mxCell>
        <mxCell id="RVw122KDVDEoWzLEf_xX-52" value="" style="endArrow=classic;html=1;rounded=0;exitX=0.5;exitY=1;exitDx=0;exitDy=0;" edge="1" parent="1" source="RVw122KDVDEoWzLEf_xX-51">
          <mxGeometry width="50" height="50" relative="1" as="geometry">
            <mxPoint x="490" y="530" as="sourcePoint" />
            <mxPoint x="720" y="580" as="targetPoint" />
          </mxGeometry>
        </mxCell>
        <mxCell id="RVw122KDVDEoWzLEf_xX-54" value="" style="edgeStyle=orthogonalEdgeStyle;html=1;verticalAlign=bottom;endArrow=open;endSize=8;strokeColor=#ff0000;rounded=0;" edge="1" parent="1" source="RVw122KDVDEoWzLEf_xX-53">
          <mxGeometry relative="1" as="geometry">
            <mxPoint x="220" y="610" as="targetPoint" />
          </mxGeometry>
        </mxCell>
        <mxCell id="RVw122KDVDEoWzLEf_xX-56" value="" style="endArrow=classic;html=1;rounded=0;entryX=0.488;entryY=0.086;entryDx=0;entryDy=0;entryPerimeter=0;exitX=0;exitY=0.5;exitDx=0;exitDy=0;" edge="1" parent="1" source="RVw122KDVDEoWzLEf_xX-51" target="RVw122KDVDEoWzLEf_xX-53">
          <mxGeometry width="50" height="50" relative="1" as="geometry">
            <mxPoint x="550" y="520" as="sourcePoint" />
            <mxPoint x="200" y="500" as="targetPoint" />
            <Array as="points">
              <mxPoint x="218" y="500" />
            </Array>
          </mxGeometry>
        </mxCell>
        <mxCell id="RVw122KDVDEoWzLEf_xX-64" value="" style="endArrow=classic;html=1;rounded=0;entryX=0.75;entryY=0.5;entryDx=0;entryDy=0;entryPerimeter=0;exitX=0;exitY=0.25;exitDx=0;exitDy=0;exitPerimeter=0;" edge="1" parent="1" source="RVw122KDVDEoWzLEf_xX-50" target="RVw122KDVDEoWzLEf_xX-61">
          <mxGeometry width="50" height="50" relative="1" as="geometry">
            <mxPoint x="520" y="580" as="sourcePoint" />
            <mxPoint x="540" y="710" as="targetPoint" />
            <Array as="points">
              <mxPoint x="515" y="600" />
            </Array>
          </mxGeometry>
        </mxCell>
        <mxCell id="RVw122KDVDEoWzLEf_xX-66" value="" style="endArrow=classic;html=1;rounded=0;exitX=0.5;exitY=1;exitDx=0;exitDy=0;" edge="1" parent="1" source="RVw122KDVDEoWzLEf_xX-65">
          <mxGeometry width="50" height="50" relative="1" as="geometry">
            <mxPoint x="490" y="870" as="sourcePoint" />
            <mxPoint x="465" y="840" as="targetPoint" />
          </mxGeometry>
        </mxCell>
        <mxCell id="RVw122KDVDEoWzLEf_xX-68" value="" style="endArrow=classic;html=1;rounded=0;" edge="1" parent="1">
          <mxGeometry width="50" height="50" relative="1" as="geometry">
            <mxPoint x="470" y="880" as="sourcePoint" />
            <mxPoint x="470" y="920" as="targetPoint" />
          </mxGeometry>
        </mxCell>
        <mxCell id="RVw122KDVDEoWzLEf_xX-16" value="ATM MACHINE" style="swimlane;startSize=20;html=1;" vertex="1" parent="1">
          <mxGeometry x="360" y="80" width="210" height="1140" as="geometry" />
        </mxCell>
        <mxCell id="RVw122KDVDEoWzLEf_xX-61" value="" style="shape=line;html=1;strokeWidth=6;strokeColor=#ff0000;" vertex="1" parent="RVw122KDVDEoWzLEf_xX-16">
          <mxGeometry x="5" y="630" width="200" height="10" as="geometry" />
        </mxCell>
        <mxCell id="RVw122KDVDEoWzLEf_xX-62" value="" style="edgeStyle=orthogonalEdgeStyle;html=1;verticalAlign=bottom;endArrow=open;endSize=8;strokeColor=#ff0000;rounded=0;" edge="1" parent="RVw122KDVDEoWzLEf_xX-16">
          <mxGeometry relative="1" as="geometry">
            <mxPoint x="105" y="710" as="targetPoint" />
            <mxPoint x="105" y="630" as="sourcePoint" />
          </mxGeometry>
        </mxCell>
        <mxCell id="RVw122KDVDEoWzLEf_xX-65" value="" style="rhombus;whiteSpace=wrap;html=1;" vertex="1" parent="RVw122KDVDEoWzLEf_xX-16">
          <mxGeometry x="65" y="710" width="80" height="50" as="geometry" />
        </mxCell>
        <mxCell id="RVw122KDVDEoWzLEf_xX-67" value="Show balance" style="points=[[0.25,0,0],[0.5,0,0],[0.75,0,0],[1,0.25,0],[1,0.5,0],[1,0.75,0],[0.75,1,0],[0.5,1,0],[0.25,1,0],[0,0.75,0],[0,0.5,0],[0,0.25,0]];shape=mxgraph.bpmn.task;whiteSpace=wrap;rectStyle=rounded;size=10;html=1;container=1;expand=0;collapsible=0;bpmnShapeType=call;" vertex="1" parent="RVw122KDVDEoWzLEf_xX-16">
          <mxGeometry x="50" y="810" width="120" height="40" as="geometry" />
        </mxCell>
        <mxCell id="RVw122KDVDEoWzLEf_xX-70" value="" style="rhombus;whiteSpace=wrap;html=1;" vertex="1" parent="RVw122KDVDEoWzLEf_xX-16">
          <mxGeometry x="70" y="890" width="80" height="70" as="geometry" />
        </mxCell>
        <mxCell id="RVw122KDVDEoWzLEf_xX-72" value="Eject Card" style="points=[[0.25,0,0],[0.5,0,0],[0.75,0,0],[1,0.25,0],[1,0.5,0],[1,0.75,0],[0.75,1,0],[0.5,1,0],[0.25,1,0],[0,0.75,0],[0,0.5,0],[0,0.25,0]];shape=mxgraph.bpmn.task;whiteSpace=wrap;rectStyle=rounded;size=10;html=1;container=1;expand=0;collapsible=0;bpmnShapeType=call;" vertex="1" parent="RVw122KDVDEoWzLEf_xX-16">
          <mxGeometry x="55" y="1020" width="110" height="20" as="geometry" />
        </mxCell>
        <mxCell id="RVw122KDVDEoWzLEf_xX-71" value="" style="endArrow=classic;html=1;rounded=0;exitX=0.5;exitY=1;exitDx=0;exitDy=0;" edge="1" parent="RVw122KDVDEoWzLEf_xX-16" source="RVw122KDVDEoWzLEf_xX-70" target="RVw122KDVDEoWzLEf_xX-72">
          <mxGeometry width="50" height="50" relative="1" as="geometry">
            <mxPoint x="130" y="910" as="sourcePoint" />
            <mxPoint x="110" y="950" as="targetPoint" />
          </mxGeometry>
        </mxCell>
      </root>
    </mxGraphModel>
  </diagram>
</mxfile>
